<?xml version="1.0" encoding="UTF-8"?>
<svg version="1.1" xmlns="http://www.w3.org/2000/svg" width="612" height="408">
<path d="M0 0 C3.05657272 -0.00433625 6.11165373 -0.04064357 9.16796875 -0.07861328 C43.09604643 -0.27205992 73.23015394 10.3134878 103.22265625 25.37060547 C103.22265625 26.03060547 103.22265625 26.69060547 103.22265625 27.37060547 C103.78082031 27.47501953 104.33898437 27.57943359 104.9140625 27.68701172 C117.78155753 31.49718368 136.45965016 47.31892201 145.22265625 57.37060547 C145.22265625 58.03060547 145.22265625 58.69060547 145.22265625 59.37060547 C145.88265625 59.37060547 146.54265625 59.37060547 147.22265625 59.37060547 C148.77933981 61.44467074 150.24647025 63.56224534 151.6875 65.71826172 C155.95120782 68.49722691 160.36301539 67.05579411 165.22265625 66.37060547 C167.12380967 66.17995193 169.02623697 66.00160929 170.9296875 65.83544922 C171.91308105 65.74811523 172.89647461 65.66078125 173.90966797 65.57080078 C247.43710046 59.3908666 247.43710046 59.3908666 274.3984375 81.12451172 C276.18869982 82.77676667 277.70452194 84.46776683 279.22265625 86.37060547 C279.97869141 87.22912109 279.97869141 87.22912109 280.75 88.10498047 C286.25635958 95.73151729 285.30779907 106.44366713 284.22265625 115.37060547 C282.24468044 123.67642763 278.29519386 130.58822372 273.22265625 137.37060547 C272.49433594 138.37478516 271.76601563 139.37896484 271.015625 140.41357422 C267.35618919 145.39599014 263.80814565 150.18949367 259.22265625 154.37060547 C258.56265625 154.37060547 257.90265625 154.37060547 257.22265625 154.37060547 C256.56265625 155.69060547 255.90265625 157.01060547 255.22265625 158.37060547 C254.56265625 158.37060547 253.90265625 158.37060547 253.22265625 158.37060547 C252.89394531 159.21751953 252.89394531 159.21751953 252.55859375 160.08154297 C250.79408086 163.1049481 248.57354847 164.81050688 245.84765625 166.99560547 C244.89117188 167.77162109 243.9346875 168.54763672 242.94921875 169.34716797 C240.73285048 170.99197995 238.73442837 172.26352107 236.22265625 173.37060547 C236.22265625 174.03060547 236.22265625 174.69060547 236.22265625 175.37060547 C234.57265625 176.03060547 232.92265625 176.69060547 231.22265625 177.37060547 C231.22265625 178.03060547 231.22265625 178.69060547 231.22265625 179.37060547 C229.7890625 180.61987305 229.7890625 180.61987305 227.78515625 182.01513672 C227.05425781 182.52753906 226.32335937 183.03994141 225.5703125 183.56787109 C224.79558594 184.10089844 224.02085937 184.63392578 223.22265625 185.18310547 C222.10697266 185.96524414 222.10697266 185.96524414 220.96875 186.76318359 C220.22753906 187.27945313 219.48632812 187.79572266 218.72265625 188.32763672 C217.98039795 188.84914307 217.23813965 189.37064941 216.47338867 189.90795898 C214.22265625 191.37060547 214.22265625 191.37060547 211.90356445 192.48754883 C209.64234776 193.60770839 207.97882027 194.55315364 206.22265625 196.37060547 C205.15106532 200.02127302 205.29645187 203.52923003 205.41015625 207.30810547 C205.39633165 209.48004927 205.37401418 211.65195353 205.34375 213.82373047 C205.33327637 214.92007813 205.32280273 216.01642578 205.31201172 217.14599609 C204.73852461 237.84167288 199.41414688 259.04218653 192.22265625 278.37060547 C191.97821777 279.03479492 191.7337793 279.69898438 191.48193359 280.38330078 C187.73768421 290.42587061 183.0674128 299.53681893 177.45703125 308.66357422 C175.52184376 311.81435217 173.82109991 315.03359483 172.22265625 318.37060547 C171.56265625 318.37060547 170.90265625 318.37060547 170.22265625 318.37060547 C170.11695313 318.94810547 170.01125 319.52560547 169.90234375 320.12060547 C169.1225821 322.7018854 168.00836664 324.25547184 166.34765625 326.37060547 C165.83460938 327.03060547 165.3215625 327.69060547 164.79296875 328.37060547 C164.27476562 329.03060547 163.7565625 329.69060547 163.22265625 330.37060547 C162.44535156 331.48435547 162.44535156 331.48435547 161.65234375 332.62060547 C160.94464844 333.48685547 160.94464844 333.48685547 160.22265625 334.37060547 C159.56265625 334.37060547 158.90265625 334.37060547 158.22265625 334.37060547 C158.16078125 334.92748047 158.09890625 335.48435547 158.03515625 336.05810547 C156.87468291 339.36099114 154.75139621 340.95181072 152.22265625 343.37060547 C151.10942995 344.65447229 150.0058875 345.94677529 148.91015625 347.24560547 C145.37332556 351.32537069 141.58220356 355.16358216 137.22265625 358.37060547 C136.56265625 358.37060547 135.90265625 358.37060547 135.22265625 358.37060547 C134.89265625 359.36060547 134.56265625 360.35060547 134.22265625 361.37060547 C132.38173007 362.99407597 130.55969692 364.46992742 128.59765625 365.93310547 C128.02152588 366.3678418 127.44539551 366.80257813 126.85180664 367.25048828 C116.46496513 375.00057359 105.96340204 381.8334159 94.22265625 387.37060547 C92.24249083 388.38950011 90.26333375 389.41035663 88.28515625 390.43310547 C75.47093129 396.79067842 62.02781949 400.80323146 48.22265625 404.37060547 C47.4347168 404.58668457 46.64677734 404.80276367 45.83496094 405.02539062 C19.49694562 412.04180224 -14.54149071 411.52368202 -40.77734375 404.37060547 C-41.81938965 404.09152344 -42.86143555 403.81244141 -43.93505859 403.52490234 C-64.32126834 397.93345975 -82.60214054 390.06772779 -100.77734375 379.37060547 C-100.77734375 378.71060547 -100.77734375 378.05060547 -100.77734375 377.37060547 C-101.3084375 377.28681641 -101.83953125 377.20302734 -102.38671875 377.11669922 C-105.6706244 376.09182017 -108.17143437 374.34049422 -111.02734375 372.43310547 C-112.105 371.72283203 -113.18265625 371.01255859 -114.29296875 370.28076172 C-115.1128125 369.65041016 -115.93265625 369.02005859 -116.77734375 368.37060547 C-116.77734375 367.71060547 -116.77734375 367.05060547 -116.77734375 366.37060547 C-117.3290625 366.12310547 -117.88078125 365.87560547 -118.44921875 365.62060547 C-121.22871082 364.12826073 -123.55881445 362.33388024 -126.02734375 360.37060547 C-126.919375 359.66935547 -127.81140625 358.96810547 -128.73046875 358.24560547 C-129.4059375 357.62685547 -130.08140625 357.00810547 -130.77734375 356.37060547 C-130.77734375 355.71060547 -130.77734375 355.05060547 -130.77734375 354.37060547 C-131.339375 354.13341797 -131.90140625 353.89623047 -132.48046875 353.65185547 C-135.29628417 352.0811285 -137.25689791 350.15589082 -139.52734375 347.87060547 C-140.72617187 346.67951172 -140.72617187 346.67951172 -141.94921875 345.46435547 C-143.77734375 343.37060547 -143.77734375 343.37060547 -143.77734375 341.37060547 C-144.43734375 341.37060547 -145.09734375 341.37060547 -145.77734375 341.37060547 C-147.50390625 339.47216797 -147.50390625 339.47216797 -149.40234375 336.99560547 C-150.03398437 336.18349609 -150.665625 335.37138672 -151.31640625 334.53466797 C-152.77734375 332.37060547 -152.77734375 332.37060547 -152.77734375 330.37060547 C-153.60323502 330.37948792 -154.42912628 330.38837036 -155.28004456 330.39752197 C-163.17539099 330.47864817 -171.07059171 330.53905702 -178.96626377 330.57785416 C-183.02269755 330.59847256 -187.07877881 330.62629922 -191.13500977 330.67236328 C-250.0133096 331.32285962 -250.0133096 331.32285962 -271.77734375 313.37060547 C-273.0703125 311.15966797 -273.0703125 311.15966797 -273.77734375 309.37060547 C-274.43734375 309.37060547 -275.09734375 309.37060547 -275.77734375 309.37060547 C-282.81377742 300.05151921 -283.10119456 290.56891519 -281.77734375 279.37060547 C-278.28512853 262.21586406 -263.55211111 246.66044261 -250.77734375 235.37060547 C-250.11734375 235.37060547 -249.45734375 235.37060547 -248.77734375 235.37060547 C-248.77734375 234.71060547 -248.77734375 234.05060547 -248.77734375 233.37060547 C-246.75151807 231.6211668 -244.71810599 229.9874959 -242.58984375 228.37060547 C-241.64069092 227.63910278 -241.64069092 227.63910278 -240.67236328 226.89282227 C-239.35490926 225.8782482 -238.03554097 224.86615543 -236.71435547 223.85644531 C-234.92483618 222.48374373 -233.1476391 221.09702922 -231.375 219.70263672 C-221.73015748 212.13998903 -211.8546403 205.25128977 -200.95703125 199.59716797 C-198.6612757 198.43418147 -198.6612757 198.43418147 -196.77734375 196.37060547 C-196.26934909 194.13518746 -196.26934909 194.13518746 -196.03125 191.52294922 C-195.91797363 190.53359375 -195.80469727 189.54423828 -195.68798828 188.52490234 C-195.57310059 187.46335938 -195.45821289 186.40181641 -195.33984375 185.30810547 C-193.46573836 169.37939127 -190.90029437 154.57886327 -185.77734375 139.37060547 C-185.45894531 138.34580078 -185.14054687 137.32099609 -184.8125 136.26513672 C-180.24719182 121.74628109 -173.53579762 108.41760691 -165.77734375 95.37060547 C-165.20242187 94.39478516 -164.6275 93.41896484 -164.03515625 92.41357422 C-154.91997371 77.51962763 -142.90639693 62.86199662 -129.77734375 51.37060547 C-129.11734375 51.37060547 -128.45734375 51.37060547 -127.77734375 51.37060547 C-127.44734375 50.38060547 -127.11734375 49.39060547 -126.77734375 48.37060547 C-124.58426802 46.46800335 -122.39514058 44.68851498 -120.08984375 42.93310547 C-119.47689453 42.45550781 -118.86394531 41.97791016 -118.23242188 41.48583984 C-107.73493763 33.37060547 -107.73493763 33.37060547 -104.77734375 33.37060547 C-104.77734375 32.71060547 -104.77734375 32.05060547 -104.77734375 31.37060547 C-102.15168347 29.93842713 -99.52575951 28.50676602 -96.8984375 27.07763672 C-94.96865415 26.02217323 -93.04321388 24.95867103 -91.125 23.88232422 C-72.23079315 13.34134566 -52.91592612 6.80884368 -31.77734375 2.37060547 C-30.53452637 2.08588379 -30.53452637 2.08588379 -29.26660156 1.79541016 C-19.60150673 -0.15575922 -9.81889559 -0.00155166 0 0 Z M180.78515625 77.87060547 C179.16737202 78.01574336 177.54953352 78.16027773 175.93164062 78.30419922 C172.02798806 78.65274464 168.12515136 79.00934043 164.22265625 79.37060547 C165.5221843 82.80626761 166.58818206 84.84151025 169.22265625 87.37060547 C170.80657138 89.87847109 172.16651942 92.22792436 173.25390625 94.99169922 C174.92575291 97.48951927 174.92575291 97.48951927 177.06835938 97.83447266 C179.46234027 98.02113989 181.82143833 98.06295455 184.22265625 98.05810547 C185.95065283 98.10273767 187.67853187 98.15218963 189.40625 98.20654297 C190.65510986 98.24086426 190.65510986 98.24086426 191.92919922 98.27587891 C199.56750733 98.59136364 206.26069985 100.51208378 213.2265625 103.56591797 C215.1731156 104.4952364 215.1731156 104.4952364 217.22265625 104.37060547 C217.22265625 105.03060547 217.22265625 105.69060547 217.22265625 106.37060547 C219.05598958 108.53727214 219.05598958 108.53727214 221.22265625 110.37060547 C221.88265625 110.37060547 222.54265625 110.37060547 223.22265625 110.37060547 C225.57282717 118.46783301 225.58755246 126.6844951 221.55444336 134.15820312 C218.85815022 138.73782447 216.00630255 142.60400262 212.22265625 146.37060547 C212.22265625 147.03060547 212.22265625 147.69060547 212.22265625 148.37060547 C210.24265625 149.36060547 210.24265625 149.36060547 208.22265625 150.37060547 C208.22265625 151.03060547 208.22265625 151.69060547 208.22265625 152.37060547 C207.66578125 152.61810547 207.10890625 152.86560547 206.53515625 153.12060547 C203.79854712 154.59985365 201.54614756 156.30527986 199.22265625 158.37060547 C199.22265625 159.03060547 199.22265625 159.69060547 199.22265625 160.37060547 C198.51882813 160.60005859 197.815 160.82951172 197.08984375 161.06591797 C193.61509798 162.64706931 191.21790338 164.73320733 188.34765625 167.24560547 C184.14803107 170.85248501 180.09440773 173.75429449 175.22265625 176.37060547 C173.75473213 177.39871263 172.29755932 178.44223629 170.84765625 179.49560547 C164.22473786 184.2045612 157.17650323 188.17616353 150.15087891 192.24414062 C147.7150201 193.66716576 145.31253973 195.14191709 142.91015625 196.62060547 C138.44624647 199.3186562 133.81288129 201.59356369 129.12890625 203.88232422 C126.55299123 205.20144199 124.15859512 206.62633468 121.72265625 208.18310547 C115.86534916 211.80677499 109.56611483 214.46334879 103.265625 217.21166992 C99.06883883 219.04897822 95.11715504 220.93840891 91.22265625 223.37060547 C88.91015625 224.05810547 88.91015625 224.05810547 87.22265625 224.37060547 C87.22265625 225.03060547 87.22265625 225.69060547 87.22265625 226.37060547 C86.18153687 226.53580688 86.18153687 226.53580688 85.11938477 226.7043457 C81.81494029 227.46438186 78.97602346 228.65788802 75.875 230.03076172 C75.27042465 230.29629349 74.6658493 230.56182526 74.04295349 230.83540344 C72.75040782 231.40326057 71.4587478 231.9731372 70.16790771 232.54486084 C66.77643796 234.04527304 63.37649127 235.52620232 59.9765625 237.00732422 C58.96746826 237.44724701 58.96746826 237.44724701 57.93798828 237.89605713 C43.62776008 244.12126945 29.10666677 249.57330961 14.34912109 254.63623047 C8.75049473 256.56971705 3.19380219 258.61845768 -2.33984375 260.72998047 C-7.69243193 262.73751354 -13.10729925 264.5548223 -18.52734375 266.37060547 C-20.03941406 266.88494141 -20.03941406 266.88494141 -21.58203125 267.40966797 C-27.68357924 269.45392062 -33.78918664 271.19432921 -40.04394531 272.70458984 C-43.65018403 273.58328038 -47.20974353 274.59876556 -50.77734375 275.62060547 C-71.91335954 281.54607365 -93.16243313 286.54201277 -114.77734375 290.37060547 C-115.62022949 290.52513184 -116.46311523 290.6796582 -117.33154297 290.83886719 C-145.69575127 296.01345803 -187.41410241 303.12045754 -213.77734375 288.37060547 C-216.83984375 285.80810547 -216.83984375 285.80810547 -218.77734375 283.37060547 C-219.55464844 282.45021484 -219.55464844 282.45021484 -220.34765625 281.51123047 C-223.53014626 276.74619078 -223.15798912 270.29374693 -222.21484375 264.80810547 C-219.32217901 253.80044839 -208.61529812 242.02023942 -198.93359375 236.27685547 C-196.95167719 235.15535663 -196.95167719 235.15535663 -194.77734375 232.37060547 C-193.87224325 225.72734358 -194.55501527 218.94062104 -195.77734375 212.37060547 C-200.46920512 213.7081361 -203.93309415 215.61284917 -207.90234375 218.43310547 C-208.46002441 218.82723633 -209.01770508 219.22136719 -209.59228516 219.62744141 C-214.49516308 223.11350234 -219.30809572 226.7190748 -224.09765625 230.35888672 C-226.37398595 232.06779313 -228.67943411 233.70040028 -231.02734375 235.30810547 C-231.93484375 235.98873047 -232.84234375 236.66935547 -233.77734375 237.37060547 C-233.77734375 238.03060547 -233.77734375 238.69060547 -233.77734375 239.37060547 C-234.33421875 239.43248047 -234.89109375 239.49435547 -235.46484375 239.55810547 C-238.75855158 240.71535417 -240.37239129 242.85379475 -242.77734375 245.37060547 C-243.93655322 246.33794579 -245.10361772 247.29593126 -246.27734375 248.24560547 C-249.23252174 250.73383975 -251.36824907 253.31198711 -253.44140625 256.56201172 C-254.77734375 258.37060547 -254.77734375 258.37060547 -257.1640625 260.65576172 C-259.99983951 263.6017483 -261.99244137 266.70066396 -263.96484375 270.24560547 C-264.30708984 270.83212891 -264.64933594 271.41865234 -265.00195312 272.02294922 C-269.31034254 279.63583149 -271.19291381 287.42521123 -269.15234375 295.99560547 C-263.0614153 306.51630007 -253.81203408 310.40184554 -242.39526367 313.51660156 C-226.88120263 317.56297461 -211.94911549 318.58758988 -195.90234375 318.55810547 C-195.18136505 318.55683655 -194.46038635 318.55556763 -193.71755981 318.55426025 C-154.25116098 318.42303997 -112.54583923 312.62264004 -74.640625 301.47998047 C-71.33585786 300.51116147 -68.02048337 299.71955684 -64.65234375 298.99560547 C-58.19762897 297.55939016 -51.87249584 295.7222737 -45.52734375 293.87060547 C-44.50882324 293.5736377 -43.49030273 293.27666992 -42.44091797 292.97070312 C-37.19019369 291.42385192 -31.98252052 289.79388531 -26.79833984 288.03759766 C-23.81803142 287.05400227 -20.7977146 286.22198517 -17.77734375 285.37060547 C5.94089548 278.20654464 29.07246678 269.5145693 52.03637695 260.23486328 C57.23277089 258.14163451 62.45978966 256.16445145 67.72265625 254.24560547 C73.54704042 252.10927621 79.06743405 249.59062356 84.57421875 246.73388672 C86.8703509 245.55195439 89.16961874 244.46637929 91.53515625 243.43310547 C98.1563662 240.53852342 104.68757197 237.45316773 111.22265625 234.37060547 C112.16866699 233.92620117 113.11467773 233.48179687 114.08935547 233.02392578 C127.08359324 226.90874943 139.8049955 220.5827363 152.22265625 213.37060547 C153.96845097 212.4046326 155.71818116 211.44572121 157.47265625 210.49560547 C158.32214844 210.03283203 159.17164063 209.57005859 160.046875 209.09326172 C161.85483463 208.11256037 163.66365144 207.13342596 165.47509766 206.15917969 C178.62427723 199.16175171 178.62427723 199.16175171 191.03515625 190.96044922 C193.38932458 189.24947331 195.81249183 187.71748205 198.28515625 186.18310547 C209.73929529 178.95918823 220.82977357 171.05306075 231.22265625 162.37060547 C232.38660112 161.41603494 233.55067284 160.46161907 234.71484375 159.50732422 C235.92643567 158.50420787 237.13737792 157.5003063 238.34765625 156.49560547 C238.9293457 156.01857178 239.51103516 155.54153809 240.11035156 155.05004883 C241.51951874 153.86788583 242.87643651 152.62398247 244.22265625 151.37060547 C244.22265625 150.71060547 244.22265625 150.05060547 244.22265625 149.37060547 C244.78339844 149.14373047 245.34414063 148.91685547 245.921875 148.68310547 C257.57221565 142.03707073 267.96286052 124.76243911 271.8671875 112.31591797 C273.03638011 105.91747927 272.90074302 99.89798672 269.60546875 94.18310547 C264.70982854 87.76622113 257.62253278 84.96114309 250.22265625 82.37060547 C249.51496094 82.09345703 248.80726563 81.81630859 248.078125 81.53076172 C227.19530472 73.74329071 202.568703 75.84938172 180.78515625 77.87060547 Z M183.22265625 109.37060547 C183.81588407 112.96824516 184.80369349 115.85569087 186.41015625 119.12060547 C189.10443081 124.84593891 191.17207599 130.71127399 193.16674805 136.70751953 C194.55035077 140.91291764 194.55035077 140.91291764 197.22265625 144.37060547 C206.98488666 135.45722008 206.98488666 135.45722008 212.5234375 124.21435547 C212.52730469 123.44091797 212.53117187 122.66748047 212.53515625 121.87060547 C212.55191406 121.09716797 212.56867188 120.32373047 212.5859375 119.52685547 C212.12519979 116.79215421 211.41487124 116.03765247 209.22265625 114.37060547 C200.90750694 110.03356716 192.39988625 109.61830398 183.22265625 109.37060547 Z M-197.58984375 250.62060547 C-198.46253906 251.40951172 -199.33523437 252.19841797 -200.234375 253.01123047 C-206.09699085 258.45058527 -210.10329777 262.95185959 -211.33984375 271.05810547 C-210.58373768 275.51073011 -209.44017283 276.73336853 -205.77734375 279.37060547 C-197.91878237 282.9976338 -189.27622203 283.04198218 -180.77734375 283.37060547 C-180.98488281 282.71060547 -181.19242188 282.05060547 -181.40625 281.37060547 C-185.02225515 269.75097386 -188.38790462 258.05788314 -191.77734375 246.37060547 C-193.92518396 246.37060547 -196.13506287 249.30001375 -197.58984375 250.62060547 Z " fill="#F7F7F7" transform="translate(304.77734375,-0.37060546875)"/>
<path d="M0 0 C0.66 0.33 1.32 0.66 2 1 C1.09636719 1.88042969 0.19273437 2.76085938 -0.73828125 3.66796875 C-1.92995407 4.84087506 -3.12134553 6.01406728 -4.3125 7.1875 C-4.90740234 7.76564453 -5.50230469 8.34378906 -6.11523438 8.93945312 C-9.32530662 12.11365864 -11.73038717 15.06969485 -14 19 C-17.1875 21.3125 -17.1875 21.3125 -20 23 C-16.05403181 13.97179005 -6.93317395 6.78565961 0 0 Z " fill="#363635" transform="translate(175,51)"/>
<path d="M0 0 C0 4.11145389 -1.67253644 5.47384294 -4.25 8.625 C-5.03890625 9.60726562 -5.8278125 10.58953125 -6.640625 11.6015625 C-8.90880113 13.90729121 -9.85141311 14.69669576 -13 15 C-13.33 13.02 -13.66 11.04 -14 9 C-13.01 9.99 -12.02 10.98 -11 12 C-7.44877919 10.57951168 -6.59938971 9.38694292 -5 6 C-3.40356422 3.93223556 -1.70861441 1.97839563 0 0 Z " fill="#4F4F4F" transform="translate(513,131)"/>
<path d="M0 0 C0.66 0.33 1.32 0.66 2 1 C0.08439941 4.63964113 -1.20378745 6.4080399 -5 8 C-5.66 8.66 -6.32 9.32 -7 10 C-8.32 9.67 -9.64 9.34 -11 9 C-7.37 6.03 -3.74 3.06 0 0 Z " fill="#878787" transform="translate(76,217)"/>
<path d="M0 0 C0.33 0 0.66 0 1 0 C1.37542662 4.50511945 1.37542662 4.50511945 -0.375 6.8125 C-2.73710407 9.99225548 -3.16427318 13.14279929 -4 17 C-4.33 17 -4.66 17 -5 17 C-4.69343615 10.37822074 -3.25711277 5.77874846 0 0 Z " fill="#535353" transform="translate(28,267)"/>
<path d="M0 0 C0 0.66 0 1.32 0 2 C-1.95927063 3.7143618 -3.95880212 5.38405168 -6 7 C-6.99 6.34 -7.98 5.68 -9 5 C-3.375 0 -3.375 0 0 0 Z " fill="#939393" transform="translate(534,165)"/>
<path d="M0 0 C0.99 0 1.98 0 3 0 C2 3 2 3 0.2578125 4.16796875 C-0.44601563 4.50441406 -1.14984375 4.84085938 -1.875 5.1875 C-2.57367188 5.53167969 -3.27234375 5.87585937 -3.9921875 6.23046875 C-6 7 -6 7 -9 7 C-7.87926138 6.16094435 -6.75325453 5.32892169 -5.625 4.5 C-4.99851563 4.0359375 -4.37203125 3.571875 -3.7265625 3.09375 C-2 2 -2 2 0 2 C0 1.34 0 0.68 0 0 Z " fill="#3F3F3F" transform="translate(200,31)"/>
<path d="M0 0 C0 3 0 3 -1.3125 4.38671875 C-2.875 5.59114583 -4.4375 6.79557292 -6 8 C-6 5 -6 5 -4.6875 3.61328125 C-3.125 2.40885417 -1.5625 1.20442708 0 0 Z " fill="#919190" transform="translate(162,66)"/>
</svg>
