<svg xmlns="http://www.w3.org/2000/svg" viewBox="0 0 72.16 78.92"><defs><style>.cls-1{fill:none;stroke:#010101;stroke-linecap:round;stroke-linejoin:round;stroke-width:2px;}</style></defs><title>Asset 5</title><g id="Layer_2" data-name="Layer 2"><g id="Layer_1-2" data-name="Layer 1"><path class="cls-1" d="M69.91,62.37c.43-.36.85-.74,1.25-1.13a.61.61,0,0,1-.12.16c-.17.27-.35.52-.54.77s-.44.6-.67.89a38.33,38.33,0,0,1-2.71,3.12l-.72.72a1.07,1.07,0,0,1-.19.18l-.63.61c-.38.34-.77.69-1.16,1a38.46,38.46,0,1,1-41-64.19,38.46,38.46,0,0,1,47.74,13.1,30.06,30.06,0,0,0-18.56-8.2c-.73-.06-1.46-.09-2.2-.09a30,30,0,0,0-12.6,2.76,28.94,28.94,0,0,0-4.14,2.33A30.14,30.14,0,0,0,24,24.81s0,0,0,0a30,30,0,0,0-3.79,14.63A30.1,30.1,0,0,0,37.85,66.88a30.08,30.08,0,0,0,32.06-4.51Z"/><path class="cls-1" d="M39.46,77.92A38.46,38.46,0,0,1,1,39.46,38.27,38.27,0,0,1,20.72,44.9a30.2,30.2,0,0,0,17.13,22A38.33,38.33,0,0,1,39.46,77.92Z"/><path class="cls-1" d="M55.54,4.52a17.39,17.39,0,0,1-3,4.9c-.73-.06-1.46-.09-2.2-.09a30,30,0,0,0-12.6,2.76,28.94,28.94,0,0,0-4.14,2.33,17.37,17.37,0,0,1-10.24-9.9,38.49,38.49,0,0,1,32.16,0Z"/></g></g></svg>