<svg xmlns="http://www.w3.org/2000/svg" viewBox="0 0 78.92 78.92"><defs><style>.cls-1{fill:none;stroke:#010101;stroke-linecap:round;stroke-linejoin:round;stroke-width:2px;}</style></defs><title>Asset 9</title><g id="Layer_2" data-name="Layer 2"><g id="Layer_1-2" data-name="Layer 1"><circle class="cls-1" cx="39.46" cy="39.46" r="25.64" transform="translate(-16.35 39.46) rotate(-45)"/><path class="cls-1" d="M39.46,60A20.53,20.53,0,0,1,19,39.46"/><line class="cls-1" x1="39.46" y1="1" x2="39.46" y2="8.69"/><line class="cls-1" x1="39.46" y1="70.23" x2="39.46" y2="77.92"/><line class="cls-1" x1="20.23" y1="6.15" x2="24.08" y2="12.81"/><line class="cls-1" x1="54.85" y1="66.11" x2="58.69" y2="72.77"/><line class="cls-1" x1="6.15" y1="20.23" x2="12.81" y2="24.08"/><line class="cls-1" x1="66.11" y1="54.85" x2="72.77" y2="58.69"/><line class="cls-1" x1="1" y1="39.46" x2="8.69" y2="39.46"/><line class="cls-1" x1="70.23" y1="39.46" x2="77.92" y2="39.46"/><line class="cls-1" x1="6.15" y1="58.69" x2="12.81" y2="54.85"/><line class="cls-1" x1="66.11" y1="24.08" x2="72.77" y2="20.23"/><line class="cls-1" x1="20.23" y1="72.77" x2="24.08" y2="66.11"/><line class="cls-1" x1="54.85" y1="12.81" x2="58.69" y2="6.15"/></g></g></svg>